<svg width="22" height="22" viewBox="0 0 22 22" fill="none" xmlns="http://www.w3.org/2000/svg">
<g clip-path="url(#clip0_5239_32988)">
<path d="M15.2322 0C15.2834 0 15.3346 0 15.3887 0C15.5142 1.55149 14.9221 2.71075 14.2023 3.55026C13.4962 4.38396 12.5291 5.19255 10.9651 5.06986C10.8607 3.5406 11.4539 2.46731 12.1727 1.62974C12.8392 0.849163 14.0613 0.154569 15.2322 0Z" fill="black"/>
<path d="M19.967 16.1488C19.967 16.1643 19.967 16.1778 19.967 16.1923C19.5275 17.5235 18.9005 18.6644 18.1354 19.7232C17.4369 20.6844 16.581 21.978 15.0527 21.978C13.7321 21.978 12.8549 21.1288 11.5015 21.1056C10.0698 21.0824 9.28247 21.8157 7.97346 22.0002C7.82372 22.0002 7.67398 22.0002 7.52714 22.0002C6.56592 21.8611 5.79017 21.0998 5.22503 20.4139C3.55858 18.3872 2.27083 15.7691 2.03125 12.4189C2.03125 12.0904 2.03125 11.7629 2.03125 11.4344C2.13269 9.03669 3.29775 7.08719 4.84634 6.14239C5.66362 5.64004 6.78714 5.21208 8.03819 5.40335C8.57435 5.48644 9.1221 5.66999 9.60223 5.85161C10.0572 6.02646 10.6263 6.33657 11.1653 6.32014C11.5305 6.30952 11.8937 6.1192 12.2618 5.98492C13.3399 5.5956 14.3968 5.14928 15.7898 5.35892C17.464 5.61202 18.6522 6.35589 19.3864 7.50356C17.9702 8.40489 16.8506 9.76317 17.0418 12.0827C17.2119 14.1896 18.4368 15.4223 19.967 16.1488Z" fill="black"/>
</g>
<defs>
<clipPath id="clip0_5239_32988">
<rect width="22" height="22" fill="white"/>
</clipPath>
</defs>
</svg>
