<svg width="20" height="20" viewBox="0 0 20 20" fill="none" xmlns="http://www.w3.org/2000/svg">
<g clip-path="url(#clip0_5239_32970)">
<path d="M11 6C11.7957 6 12.5587 6.31607 13.1213 6.87868C13.6839 7.4413 14 8.20436 14 9.00001C14 9.26523 14.1054 9.51958 14.2929 9.70712C14.4804 9.89465 14.7348 10 15 10C15.2652 10 15.5196 9.89465 15.7071 9.70712C15.8947 9.51958 16 9.26523 16 9.00001C16 7.67392 15.4732 6.40215 14.5355 5.46447C13.5979 4.52679 12.3261 4 11 4C10.7348 4 10.4804 4.10536 10.2929 4.29289C10.1054 4.48043 10 4.73478 10 5C10 5.26522 10.1054 5.51957 10.2929 5.70711C10.4804 5.89465 10.7348 6 11 6Z" fill="#0075FF"/>
<path d="M11 2C12.8565 2 14.637 2.7375 15.9498 4.05026C17.2625 5.36302 18 7.1435 18 9.00002C18 9.26524 18.1054 9.51959 18.2929 9.70713C18.4805 9.89466 18.7348 10 19 10C19.2653 10 19.5196 9.89466 19.7071 9.70713C19.8947 9.51959 20 9.26524 20 9.00002C20 6.61307 19.0518 4.32388 17.364 2.63604C15.6762 0.948213 13.387 0 11 0C10.7348 0 10.4805 0.105357 10.2929 0.292894C10.1054 0.480431 10 0.734785 10 1C10 1.26522 10.1054 1.51957 10.2929 1.70711C10.4805 1.89465 10.7348 2 11 2ZM19.75 13.91C19.695 13.7495 19.6001 13.6056 19.4741 13.4919C19.3482 13.3782 19.1953 13.2984 19.03 13.26L13.03 11.89C12.8672 11.8531 12.6976 11.8575 12.5369 11.903C12.3762 11.9484 12.2295 12.0333 12.11 12.15C11.97 12.28 11.96 12.29 11.31 13.53C9.15322 12.5362 7.42501 10.8009 6.44001 8.64002C7.71002 8.00002 7.72002 8.00002 7.85002 7.85002C7.96673 7.73057 8.05166 7.5838 8.09708 7.4231C8.1425 7.2624 8.14694 7.09288 8.11002 6.93002L6.74001 1C6.70166 0.834698 6.62187 0.681872 6.50816 0.555913C6.39444 0.429953 6.25055 0.335003 6.09001 0.280001C5.85648 0.19659 5.61532 0.136301 5.37001 0.1C5.11726 0.0413953 4.85934 0.00789936 4.60001 0C3.38001 0 2.20998 0.484643 1.34731 1.34731C0.484643 2.20998 0 3.38001 0 4.60001C0.00529193 8.68273 1.62949 12.5967 4.51641 15.4836C7.40333 18.3706 11.3173 19.9948 15.4 20C16.0041 20 16.6023 19.8811 17.1604 19.6499C17.7185 19.4187 18.2256 19.0799 18.6527 18.6527C19.0799 18.2256 19.4187 17.7185 19.6499 17.1604C19.8811 16.6023 20 16.0041 20 15.4C20.0003 15.1455 19.9803 14.8914 19.94 14.64C19.898 14.3916 19.8344 14.1474 19.75 13.91Z" fill="#0075FF"/>
</g>
<defs>
<clipPath id="clip0_5239_32970">
<rect width="20" height="20" fill="white"/>
</clipPath>
</defs>
</svg>
