<svg width="34" height="34" viewBox="0 0 34 34" fill="none" xmlns="http://www.w3.org/2000/svg">
<g clip-path="url(#clip0_5696_2671)">
<path d="M23.1756 12.1992L23.7084 9.28353C23.7084 8.22747 23.7084 7.0884 23.7084 6.71168C23.7084 3.00488 20.7036 0 16.9966 0C13.2898 0 10.2851 3.00488 10.2851 6.71168V9.28326L10.8176 12.1992C10.7813 16.4215 7.57895 17.1973 7.75293 20.7148L8.01849 21.0297H25.7745L26.2404 20.713C26.4132 17.1969 23.212 16.4225 23.1756 12.1992Z" fill="#3A3E49"/>
<path d="M13.7875 12.1992L13.2549 9.28326C13.2549 8.07294 13.2549 6.73393 13.2549 6.71168C13.2549 3.51521 15.4893 0.840969 18.4815 0.165152C18.0039 0.0572422 17.5069 0 16.9966 0C13.2898 0 10.2851 3.00488 10.2851 6.71168V9.28326L10.8176 12.1992C10.7813 16.4215 7.57895 17.1973 7.75293 20.7148L8.01849 21.0297H10.9883L10.7228 20.7148C10.5488 17.1972 13.7511 16.4215 13.7875 12.1992Z" fill="#262933"/>
<path d="M21.8672 8.70375L21.6758 8.96088V12.2446L21.8646 12.3732C23.1368 12.6169 24.1963 11.7027 24.1963 10.5386C24.1963 9.37532 23.1382 8.4619 21.8672 8.70375Z" fill="#FFCEBE"/>
<path d="M9.79688 10.5386C9.79688 11.7028 10.8563 12.617 12.1287 12.3731L12.3429 12.1648V8.90355L12.126 8.70373C10.855 8.46195 9.79688 9.37537 9.79688 10.5386Z" fill="#FFCEBE"/>
<path d="M26.9461 20.986C26.7662 20.9164 24.8536 20.1756 23.0857 19.4909L22.5322 19.6984L21.2997 20.0834L16.9997 25.7043L12.968 20.3389L11.899 19.878L10.9129 19.4897C9.10157 20.192 7.09577 20.9696 7.05347 20.986C5.91168 21.4558 4.38281 22.9344 4.38281 25.1284V33.1099C4.38281 33.6014 4.78125 33.9998 5.27279 33.9998H28.7269C29.2184 33.9998 29.6169 33.6013 29.6169 33.1099C29.6169 32.3746 29.6169 25.9941 29.6169 25.1284C29.6167 23.2389 28.407 21.5873 26.9461 20.986Z" fill="url(#paint0_linear_5696_2671)"/>
<path d="M17.0005 25.7044L21.3004 20.0835L20.2426 20.4139H13.1425L12.9688 20.339L17.0005 25.7044Z" fill="white"/>
<path opacity="0.2" d="M9.01439 33.9999V24.6044C9.01439 24.321 8.78469 24.0913 8.50134 24.0913C8.21798 24.0913 7.98828 24.321 7.98828 24.6044V33.9999H9.01439Z" fill="#0E2667"/>
<path opacity="0.2" d="M26.0105 33.9999V24.6044C26.0105 24.321 25.7808 24.0913 25.4974 24.0913C25.2141 24.0913 24.9844 24.321 24.9844 24.6044V33.9999H26.0105Z" fill="#0E2667"/>
<path d="M22.5315 19.2766H22.3766L19.5034 21.5997L19.0753 21.8256L17.2255 24.4068C17.1142 24.5621 16.8833 24.5621 16.772 24.4068L14.9226 21.8258L14.3611 21.4345L11.7272 19.2755H11.4653C11.2845 19.3455 11.0995 19.4172 10.9121 19.4899L15.336 25.6638C16.1519 26.8026 17.8453 26.8026 18.6613 25.6639L23.085 19.491C22.8982 19.4186 22.713 19.3469 22.5315 19.2766Z" fill="#FACAF9"/>
<path d="M19.966 18.2739C19.9661 18.274 19.9661 18.274 19.9662 18.2741C19.822 18.1859 19.73 18.0286 19.7295 17.8547L19.7282 16.242L19.5004 16.0643H14.4757L14.2655 16.2552V17.8517C14.2655 18.072 14.1508 18.1944 14.0268 18.2695C13.9747 18.2265 14.1216 18.5698 14.1216 18.5698L15.9003 20.0653L15.8489 20.4254L15.8793 20.5703L18.1186 20.5701L18.3288 20.2544L18.2946 19.9123L19.9661 18.527L19.966 18.2739Z" fill="#FFDECF"/>
<path d="M16.999 16.0642H14.4757L14.2655 16.2551V17.8516C14.2655 18.0719 14.1508 18.1943 14.0268 18.2694C13.9747 18.2264 14.1216 18.5697 14.1216 18.5697L15.9003 20.0652L15.8489 20.4253L15.8793 20.5702H16.999V16.0642Z" fill="#FFCEBE"/>
<path d="M19.8062 8.70389C18.2549 8.70389 16.9974 7.44636 16.9974 5.89517C16.9974 7.20683 16.0982 8.30824 14.8828 8.6173V12.2568C14.8828 14.319 16.183 16.2365 18.2732 16.9094C20.3341 16.3605 21.865 14.4489 21.865 12.2225V8.70382H19.8062V8.70389Z" fill="#FFDECF"/>
<path d="M14.9619 12.2696V8.59491C14.716 8.6653 14.4566 8.70375 14.188 8.70375H12.1289V12.2696C12.1289 14.7711 14.0844 17.0579 17.0466 17.0679C17.5263 17.0695 17.9899 16.9976 18.428 16.8646C16.2958 16.2528 14.9619 14.3351 14.9619 12.2696Z" fill="#FFCEBE"/>
<path d="M18.8435 21.6428C19.004 21.8806 19.3347 21.928 19.5555 21.7448L22.5318 19.2767C21.2596 18.784 20.1758 18.3643 20.0455 18.3138C20.0175 18.303 19.9914 18.2892 19.9664 18.2738L18.1267 19.7994C17.9346 19.9587 17.8946 20.2377 18.0343 20.4445L18.8435 21.6428Z" fill="#ED91EB"/>
<path d="M11.4668 19.2755L14.4446 21.7448C14.6654 21.928 14.9961 21.8806 15.1567 21.6428L15.9657 20.4445C16.1054 20.2377 16.0655 19.9587 15.8733 19.7994L14.0283 18.2695C13.9396 18.3232 13.8461 18.353 13.7862 18.3762C13.7435 18.3929 12.7109 18.7931 11.4668 19.2755Z" fill="#ED91EB"/>
<path opacity="0.2" d="M6.4946 24.8038C6.4946 22.9447 7.53173 21.4109 8.36712 20.477C7.60909 20.7709 7.07505 20.9779 7.05347 20.9863C5.91168 21.4561 4.38281 22.9347 4.38281 25.1286V33.1101C4.38281 33.6017 4.78125 34.0001 5.27279 34.0001H6.49466C6.4946 31.3491 6.4946 26.91 6.4946 24.8038Z" fill="#0E2667"/>
</g>
<defs>
<linearGradient id="paint0_linear_5696_2671" x1="4.38281" y1="26.7448" x2="29.6169" y2="26.7448" gradientUnits="userSpaceOnUse">
<stop stop-color="#DF7BEA"/>
<stop offset="1" stop-color="#ED3197"/>
</linearGradient>
<clipPath id="clip0_5696_2671">
<rect width="34" height="34" fill="white"/>
</clipPath>
</defs>
</svg>
