<svg width="34" height="34" viewBox="0 0 34 34" fill="none" xmlns="http://www.w3.org/2000/svg">
<path d="M16.9939 20.7208H17.0038C17.0209 20.5924 17.0861 20.4692 17.1992 20.3802C17.9221 19.81 19.2991 18.7265 19.9729 18.2103C19.8743 18.1195 19.8139 17.9924 19.8136 17.8544L19.812 16.0264C19.0238 16.5271 18.083 16.8192 17.0728 16.8192C15.9588 16.8192 14.9808 16.5196 14.1835 16.0189L14.1838 17.8516C14.1838 18.021 14.1138 18.1325 14.0234 18.2093C14.6964 18.725 16.0753 19.8098 16.7985 20.3802C16.9116 20.4692 16.9768 20.5924 16.9939 20.7208Z" fill="#FFDECF"/>
<path d="M16.28 16.7665C15.491 16.6602 14.7857 16.3971 14.1835 16.0189V17.8516C14.1835 18.021 14.1138 18.1325 14.0234 18.2093C14.558 18.6189 15.5373 19.387 16.28 19.9716V16.7665Z" fill="#FFCEBE"/>
<path d="M19.4308 23.0445L17.2515 20.933C17.1806 20.8642 17.1416 20.7724 17.1413 20.6746C17.1413 20.5991 17.0769 20.5379 16.9992 20.5379C16.9214 20.5379 16.8583 20.5991 16.858 20.6746C16.858 20.7724 16.819 20.8642 16.7479 20.9332L14.6172 23.0084C14.5801 23.0445 14.567 23.0977 14.5827 23.1464L16.8933 30.2104C16.912 30.2672 16.9663 30.3058 17.0277 30.3058H17.0326C17.094 30.3058 17.1483 30.2672 17.167 30.2104L19.4655 23.1827C19.4816 23.134 19.4682 23.0805 19.4308 23.0445Z" fill="#60B8FF"/>
<path d="M16.0349 21.6277L14.6173 23.0085C14.5802 23.0445 14.5668 23.0977 14.5829 23.1465L16.8934 30.2107C16.9121 30.2675 16.9664 30.3059 17.0279 30.3059H17.0324C17.0939 30.3059 17.1484 30.2672 17.1668 30.2107L17.9355 27.8605C17.2465 25.6681 16.608 23.5607 16.0349 21.6277Z" fill="#00A3FF"/>
<path d="M22.9881 8.43823C22.8312 8.54329 22.642 8.60503 22.4381 8.60503C22.3066 8.60503 22.178 8.59128 22.054 8.56586V12.1523C22.054 12.1956 22.0519 12.2384 22.0508 12.2815C23.3596 12.4304 24.449 11.5028 24.449 10.3682C24.449 9.49606 23.853 8.67792 22.9881 8.43823Z" fill="#FFDECF"/>
<path d="M11.9764 12.1505V8.56122H11.3317C11.1681 8.56122 11.011 8.5358 10.8632 8.48962C10.125 8.7939 9.55273 9.53241 9.55273 10.3451C9.55273 11.4919 10.6528 12.4322 11.9796 12.2813C11.9785 12.2377 11.9764 12.1944 11.9764 12.1505Z" fill="#FFCEBE"/>
<path d="M20.6393 6.40713C20.6393 6.31193 20.5078 6.27925 20.4615 6.36304C19.865 7.44603 18.6893 8.18324 17.3355 8.18324H11.9102V12.1546C11.9102 14.6999 13.9649 17.0243 17.0731 17.0243C19.8401 17.0243 22.0911 14.8399 22.0911 12.1546V8.14459C21.2644 7.97417 20.6393 7.25822 20.6393 6.40713Z" fill="#FFDECF"/>
<path d="M14.024 12.1546V8.18323H11.9102V12.1546C11.9102 14.6999 13.9652 17.0243 17.0733 17.0243C17.4227 17.0243 17.764 16.9893 18.0932 16.9232C15.606 16.4508 14.024 14.3878 14.024 12.1546Z" fill="#FFCEBE"/>
<path d="M21.7648 2.25159C21.2853 2.28738 20.8454 1.99478 20.7532 1.53694C20.5979 0.765488 20.2042 0 18.6674 0H13.3345C11.3775 0 9.79102 1.5398 9.79102 3.43938V7.2139C9.79102 8.01363 10.4589 8.66213 11.2829 8.66213H17.3353C18.6891 8.66213 19.8648 7.92491 20.4613 6.84192C20.5076 6.75814 20.6391 6.79082 20.6391 6.88602C20.6391 7.86292 21.4625 8.66213 22.4688 8.66213C22.9964 8.66213 23.4281 8.2432 23.4281 7.73114V3.79216C23.4281 2.86429 22.5939 2.18985 21.7648 2.25159Z" fill="#3A3E49"/>
<path d="M11.91 7.2139V3.43938C11.91 1.5398 13.4967 0 15.4537 0H13.3345C11.3775 0 9.79102 1.5398 9.79102 3.43938V7.2139C9.79102 8.01363 10.4589 8.66213 11.2829 8.66213H13.4021C12.5781 8.66213 11.91 8.01363 11.91 7.2139Z" fill="#262933"/>
<path d="M17.0306 30.1764L13.2276 18.5496L6.75184 20.9862C5.5753 21.4559 4 22.9345 4 25.1285V33.11C4 33.6015 4.41053 34 4.91701 34H17.242L17.0306 30.1764Z" fill="#D9EDFF"/>
<path d="M6.11466 33.2469V24.1708C6.11466 22.4829 7.04717 21.2191 8.01283 20.5117L6.75184 20.9862C5.5753 21.4559 4 22.9345 4 25.1285V33.11C4 33.6015 4.41053 34 4.91701 34H6.5447C6.28678 33.8425 6.11466 33.5644 6.11466 33.2469Z" fill="#B4DBFF"/>
<path d="M8.84639 33.9999V25.9541C8.84639 25.6709 8.60959 25.441 8.31773 25.441C8.0256 25.441 7.78906 25.6709 7.78906 25.9541V33.9999H8.84639Z" fill="#B4DBFF"/>
<path d="M12.5953 29.6127C12.3032 29.6127 12.0664 29.3829 12.0664 29.0997V24.3744C12.0664 24.0909 12.3032 23.8611 12.5953 23.8611C12.8872 23.8611 13.124 24.0909 13.124 24.3744V29.0997C13.1237 29.3829 12.8872 29.6127 12.5953 29.6127Z" fill="#262933"/>
<path d="M14.3334 30.3346C14.3334 31.2687 13.553 32.0259 12.5905 32.0259C11.6281 32.0259 10.8477 31.2687 10.8477 30.3346C10.8477 29.4003 11.6281 28.6431 12.5905 28.6431C13.553 28.6431 14.3334 29.4003 14.3334 30.3346Z" fill="#60B8FF"/>
<path d="M12.5912 30.8474C12.2961 30.8474 12.0625 30.6145 12.0625 30.3343C12.0625 30.0106 12.3699 29.766 12.6941 29.8316C12.9418 29.8768 13.1198 30.0949 13.1198 30.3343C13.1198 30.6083 12.891 30.8474 12.5912 30.8474Z" fill="#8BCAFF"/>
<path d="M30.0007 33.11V25.1285C30.0007 23.2391 28.7541 21.5875 27.2488 20.9862L20.8268 18.5722L17.0312 30.1764V34H29.0836C29.5901 34 30.0007 33.6015 30.0007 33.11Z" fill="#D9EDFF"/>
<path d="M26.2722 33.9999V25.9541C26.2722 25.6709 26.0354 25.441 25.7435 25.441C25.4514 25.441 25.2148 25.6709 25.2148 25.9541V33.9999H26.2722Z" fill="#B4DBFF"/>
<path d="M21.4056 29.0003C21.1138 29.0003 20.877 28.7707 20.877 28.4872V24.6071C20.877 24.3236 21.1138 24.0938 21.4056 24.0938C21.6978 24.0938 21.9343 24.3236 21.9343 24.6071V28.4872C21.9343 28.7707 21.6978 29.0003 21.4056 29.0003Z" fill="#262933"/>
<path d="M24.1295 34V30.6177C24.1295 29.1601 22.9075 27.9741 21.4054 27.9741C19.9036 27.9741 18.6816 29.1601 18.6816 30.6177V34H19.739V30.6177C19.739 29.7258 20.4865 29.0003 21.4054 29.0003C22.3246 29.0003 23.0721 29.7258 23.0721 30.6177V34H24.1295Z" fill="#262933"/>
<path d="M17.8642 22.9633L18.5936 25.4001L17.0313 30.1764L15.4844 25.4473L16.1371 22.9633H17.8642Z" fill="#FF646F"/>
<path d="M16.434 22.9633H16.1371L15.4844 25.4473L17.0313 30.1764L17.8642 27.6299C17.3574 26.0141 16.8787 24.4468 16.434 22.9633Z" fill="#FF4755"/>
<path d="M17.222 21.0362C17.1132 20.9288 16.9929 20.7872 16.9998 20.6484H16.9985C17.0057 20.7872 16.8855 20.9288 16.7767 21.0362L15.6504 22.0103L16.117 22.9516C16.1283 22.982 16.1579 23.0022 16.1908 23.0022H17.8075C17.8407 23.0022 17.8704 22.982 17.8816 22.9516L18.3477 22.0098L17.222 21.0362Z" fill="#FF4755"/>
<path d="M16.0465 21.6678L15.6504 22.0103L16.117 22.9516C16.1283 22.982 16.1579 23.0022 16.1911 23.0022H16.4445C16.3087 22.5493 16.1758 22.1039 16.0465 21.6678Z" fill="#FC2B3A"/>
<path d="M19.4851 23.2901L20.8263 18.5722L20.1386 18.3138C20.0491 18.2801 19.974 18.2228 19.9184 18.1514C19.306 18.6183 17.9103 19.7164 17.1917 20.2832C16.9527 20.4712 16.9345 20.8186 17.1521 21.0297L19.4851 23.2901Z" fill="#00A3FF"/>
<path d="M13.2285 18.5496C13.3362 18.8793 13.8897 20.9604 14.6218 23.1988L16.8487 21.0297C17.0663 20.8186 17.0481 20.4715 16.8092 20.2832C16.0902 19.7161 14.6934 18.6173 14.0816 18.1506C13.9673 18.2876 13.7858 18.3397 13.689 18.3761L13.2285 18.5496Z" fill="#00A3FF"/>
<path d="M13.2285 18.5496C13.3362 18.8793 13.8897 20.9604 14.6218 23.1988L16.8487 21.0297C17.0663 20.8186 17.0481 20.4715 16.8092 20.2832C16.0902 19.7161 14.6934 18.6173 14.0816 18.1506C13.9673 18.2876 13.7858 18.3397 13.689 18.3761L13.2285 18.5496Z" fill="#00A3FF"/>
<path d="M15.2911 19.0899C14.8166 18.7185 14.365 18.3667 14.0816 18.1506C13.9673 18.2876 13.7858 18.3397 13.689 18.3761L13.2285 18.5493C13.3362 18.8793 13.8897 20.9604 14.6218 23.1988L16.0806 21.7778C15.8015 20.8383 15.538 19.9387 15.2911 19.0899Z" fill="#0094FD"/>
<path d="M10.832 19.4513V20.9296C10.832 21.1068 10.9178 21.2733 11.064 21.3794L12.2176 22.2175C12.4349 22.3755 12.51 22.6588 12.398 22.899L11.8872 23.9949C11.7758 24.2338 11.8495 24.5161 12.0652 24.6743L17.0317 30.1764C16.8596 29.6506 13.4877 19.3413 13.2287 18.5496L10.832 19.4513Z" fill="#B4DBFF"/>
<path d="M15.9901 26.9923L13.8976 24.6743C13.6822 24.5161 13.6085 24.2338 13.7199 23.9949L14.2307 22.899C14.3427 22.6588 14.2676 22.3755 14.0503 22.2175L12.8967 21.3794C12.7508 21.2733 12.6647 21.1065 12.6647 20.9296V20.2471C12.6647 19.7675 12.9686 19.3369 13.4294 19.1636C13.3284 18.8547 13.2581 18.6396 13.2287 18.5496L10.832 19.4513V20.9296C10.832 21.1068 10.9178 21.2733 11.064 21.3794L12.2176 22.2175C12.4349 22.3755 12.51 22.6588 12.398 22.899L11.8872 23.9949C11.7758 24.2338 11.8495 24.5161 12.065 24.6743L17.0317 30.1764C16.9729 29.9972 16.5423 28.6807 15.9901 26.9923Z" fill="#8BCAFF"/>
<path d="M21.8454 22.2175L22.9989 21.3794C23.1448 21.2733 23.2309 21.1068 23.2309 20.9296V19.476L20.8268 18.5722L17.0312 30.1764L21.9977 24.6743C22.2131 24.5161 22.2872 24.2341 22.1757 23.9949L21.665 22.899C21.553 22.6588 21.6281 22.3755 21.8454 22.2175Z" fill="#B4DBFF"/>
</svg>
