<svg width="34" height="34" viewBox="0 0 34 34" fill="none" xmlns="http://www.w3.org/2000/svg">
<g clip-path="url(#clip0_5696_1492)">
<path d="M9.98863 2.86456C10.0183 2.86319 10.0482 2.86257 10.0783 2.86257H10.6742C10.7818 2.86257 10.8689 2.77542 10.8689 2.66789C10.869 1.19444 12.0634 0 13.5368 0H24.9005C25.4409 0 25.8789 0.438015 25.8789 0.978414V4.29032C25.8789 7.18316 23.5337 9.52832 20.6409 9.52832L16.9922 11.1099L9.92378 11.3465L8.38377 5.4556C7.89072 4.27022 8.70615 2.92234 9.98863 2.86456V2.86456Z" fill="#3A3E49"/>
<path d="M11.7988 9.13402H9.3455L8.3839 5.4556C7.89077 4.27029 8.70622 2.92235 9.98877 2.86457C10.0185 2.8632 10.0483 2.86258 10.0784 2.86258H10.3323C10.2644 3.21166 10.2929 3.5862 10.4426 3.94592L11.7988 9.13402Z" fill="#262933"/>
<path d="M9.28182 11.6881C8.55453 10.9608 8.55453 9.7816 9.28182 9.05432C10.0091 8.32703 11.1883 8.32703 11.9156 9.05432C12.6428 9.7816 12.6428 10.9608 11.9156 11.6881C11.1883 12.4153 10.0091 12.4153 9.28182 11.6881Z" fill="#FFCEBE"/>
<path d="M6.81039 23.0257L10.38 21.6871L16.6667 21.0242L23.6205 21.6871L27.1901 23.0257C29.2692 23.8053 30.6465 25.7928 30.6465 28.0132V33.4632C30.6465 33.7597 30.4062 34 30.1097 34H3.89073C3.59428 34 3.35397 33.7597 3.35397 33.4632V28.0132C3.35404 25.7928 4.73135 23.8054 6.81039 23.0257Z" fill="#80B6FC"/>
<path d="M6.81084 23.0257L10.3805 21.6871L11.4961 21.5175L11.0699 22.1985L8.86951 23.0258C6.79046 23.8054 5.41314 25.7929 5.41314 28.0133V33.4633C5.41314 33.7597 5.65346 34.0001 5.94991 34.0001H3.89124C3.59479 34.0001 3.35448 33.7597 3.35448 33.4633V28.0133C3.35448 25.7928 4.73179 23.8054 6.81084 23.0257Z" fill="#62A4FB"/>
<path d="M10.3806 21.6871L13.2248 20.6205C13.5947 20.4817 13.8398 20.128 13.8398 19.7329V14.1564H20.1618V19.7329C20.1618 20.128 20.4069 20.4818 20.7769 20.6205L23.6211 21.6871L22.0748 22.8342C19.0615 25.0696 14.9402 25.0696 11.9269 22.8342L10.3806 21.6871Z" fill="#FFDECF"/>
<path d="M14.715 20.6205L11.0688 22.1985L10.3794 21.6871L13.2236 20.6205C13.5935 20.4817 13.8386 20.128 13.8386 19.7329V14.1564H15.3301V19.7329C15.3301 20.1281 15.085 20.4818 14.715 20.6205Z" fill="#FFCEBE"/>
<path d="M23.1309 7.09697V11.926C23.1309 13.3266 22.6612 14.6175 21.8707 15.6498C20.7504 17.1129 18.9857 16.684 17.0005 16.684C15.0154 16.684 13.2506 17.1129 12.1302 15.6498C11.3398 14.6175 10.8701 13.3266 10.8701 11.926V7.09697C10.8701 5.73804 11.9718 4.63638 13.3307 4.63638H20.6703C22.0292 4.63645 23.1309 5.73804 23.1309 7.09697Z" fill="#FFDECF"/>
<path d="M13.3302 4.63644H15.3889C14.0299 4.63644 12.9283 5.73804 12.9283 7.09703V11.9261C12.9283 14.961 15.1338 17.4804 18.0293 17.97C17.6946 18.0266 17.3508 18.0565 17 18.0565C13.6143 18.0565 10.8696 15.3118 10.8696 11.9261V7.09703C10.8696 5.73804 11.9713 4.63644 13.3302 4.63644V4.63644Z" fill="#FFCEBE"/>
<path d="M22.7662 12.0888C21.8157 11.6948 21.3646 10.6049 21.7586 9.65437C22.1526 8.70386 23.2425 8.25271 24.193 8.6467C25.1435 9.04069 25.5947 10.1306 25.2007 11.0811C24.8067 12.0316 23.7168 12.4828 22.7662 12.0888Z" fill="#FFDECF"/>
<path d="M20.3046 11.861C20.4298 11.861 20.5552 11.8157 20.6543 11.7239L23.4797 9.10573C23.6882 8.91256 23.7006 8.58688 23.5073 8.37841C23.3142 8.16993 22.9886 8.15751 22.78 8.35075L19.9546 10.9689C19.7462 11.1621 19.7337 11.4877 19.927 11.6962C20.0284 11.8057 20.1663 11.861 20.3046 11.861V11.861Z" fill="white"/>
<path d="M13.6961 11.8611C13.8345 11.8611 13.9724 11.8057 14.0738 11.6962C14.2669 11.4878 14.2546 11.1621 14.0461 10.9689L11.2207 8.35076C11.0121 8.15752 10.6865 8.17001 10.4934 8.37841C10.3002 8.58689 10.3125 8.9125 10.521 9.10574L13.3464 11.7239C13.4455 11.8157 13.5711 11.8611 13.6961 11.8611V11.8611Z" fill="white"/>
<path d="M17.0012 18.0564C15.016 18.0564 13.2516 17.1126 12.1313 15.6495C12.1382 12.9634 13.4039 10.1459 17.0012 10.1459C20.5984 10.1459 21.8642 12.9634 21.8711 15.6495C20.7507 17.1126 18.9863 18.0564 17.0012 18.0564Z" fill="#BED9FD"/>
<path d="M17 10.1459C17.3671 10.1459 17.7096 10.1757 18.0293 10.2313C15.7576 10.6261 14.6543 12.3441 14.3106 14.2611C14.1471 15.173 14.4854 16.1113 15.2056 16.6939C16.0054 17.3409 16.9713 17.7908 18.0293 17.9697C17.6946 18.0263 17.3508 18.0564 17 18.0564C15.0149 18.0564 13.2505 17.1126 12.1301 15.6495C12.1371 12.9634 13.4028 10.1459 17 10.1459V10.1459Z" fill="#9EC8FC"/>
</g>
<defs>
<clipPath id="clip0_5696_1492">
<rect width="34" height="34" fill="white" transform="matrix(-1 0 0 1 34 0)"/>
</clipPath>
</defs>
</svg>
