<svg width="25" height="24" viewBox="0 0 25 24" fill="none" xmlns="http://www.w3.org/2000/svg">
<circle cx="12.5" cy="12" r="12" fill="white"/>
<g clip-path="url(#clip0_5502_17952)">
<path d="M15.4055 9.74078L15.6562 8.36872C15.6562 7.87175 15.6562 7.33572 15.6562 7.15844C15.6562 5.41406 14.2422 4 12.4977 4C10.7533 4 9.33934 5.41406 9.33934 7.15844V8.36859L9.58997 9.74078C9.57284 11.7278 8.06588 12.0928 8.14775 13.7481L8.27272 13.8963H16.6285L16.8477 13.7473C16.929 12.0927 15.4226 11.7283 15.4055 9.74078Z" fill="#3A3E49"/>
<path d="M10.9875 9.74078L10.7369 8.36859C10.7369 7.79903 10.7369 7.16891 10.7369 7.15844C10.7369 5.65422 11.7884 4.39575 13.1965 4.07772C12.9717 4.02694 12.7379 4 12.4977 4C10.7533 4 9.33934 5.41406 9.33934 7.15844V8.36859L9.58997 9.74078C9.57284 11.7278 8.06588 12.0928 8.14775 13.7481L8.27272 13.8963H9.67028L9.54531 13.7481C9.46347 12.0928 10.9704 11.7277 10.9875 9.74078Z" fill="#262933"/>
<path d="M14.7893 8.09578L14.6992 8.21678V9.76206L14.7881 9.82256C15.3868 9.93728 15.8853 9.50706 15.8853 8.95925C15.8853 8.41181 15.3874 7.98197 14.7893 8.09578Z" fill="#FFCEBE"/>
<path d="M9.10938 8.95924C9.10938 9.50709 9.60794 9.93731 10.2067 9.82256L10.3075 9.72449V8.18981L10.2054 8.09577C9.60731 7.98199 9.10938 8.41184 9.10938 8.95924Z" fill="#FFCEBE"/>
<path d="M17.1805 13.8758C17.0959 13.843 16.1958 13.4944 15.3639 13.1722L15.1034 13.2698L14.5234 13.451L12.4999 16.0961L10.6026 13.5712L10.0995 13.3543L9.63547 13.1716C8.78309 13.5021 7.83919 13.8681 7.81928 13.8758C7.28197 14.0969 6.5625 14.7927 6.5625 15.8251V19.5811C6.5625 19.8124 6.75 19.9999 6.98131 19.9999H18.0185C18.2498 19.9999 18.4373 19.8124 18.4373 19.5811C18.4373 19.2351 18.4373 16.2325 18.4373 15.8251C18.4373 14.936 17.868 14.1587 17.1805 13.8758Z" fill="url(#paint0_linear_5502_17952)"/>
<path d="M12.4988 16.0961L14.5223 13.4509L14.0246 13.6064H10.6833L10.6016 13.5712L12.4988 16.0961Z" fill="white"/>
<path opacity="0.2" d="M8.74264 20V15.5786C8.74264 15.4453 8.63455 15.3372 8.5012 15.3372C8.36786 15.3372 8.25977 15.4453 8.25977 15.5786V20H8.74264Z" fill="#0E2667"/>
<path opacity="0.2" d="M16.7407 20V15.5786C16.7407 15.4453 16.6326 15.3372 16.4993 15.3372C16.3659 15.3372 16.2578 15.4453 16.2578 15.5786V20H16.7407Z" fill="#0E2667"/>
<path d="M15.1047 13.0714H15.0318L13.6797 14.1646L13.4782 14.2709L12.6077 15.4856C12.5553 15.5586 12.4467 15.5586 12.3943 15.4856L11.524 14.271L11.2597 14.0868L10.0203 13.0708H9.89703C9.81197 13.1038 9.72491 13.1375 9.63672 13.1717L11.7185 16.0771C12.1025 16.613 12.8994 16.613 13.2834 16.0771L15.3651 13.1722C15.2772 13.1381 15.1901 13.1044 15.1047 13.0714Z" fill="#FACAF9"/>
<path d="M13.8959 12.5994C13.8959 12.5994 13.8959 12.5994 13.896 12.5994C13.8281 12.558 13.7848 12.4839 13.7846 12.4021L13.784 11.6432L13.6768 11.5596H11.3122L11.2133 11.6494V12.4007C11.2133 12.5044 11.1593 12.562 11.101 12.5973C11.0765 12.5771 11.1456 12.7386 11.1456 12.7386L11.9826 13.4424L11.9584 13.6119L11.9727 13.68L13.0265 13.6799L13.1254 13.5314L13.1093 13.3704L13.8959 12.7185L13.8959 12.5994Z" fill="#FFDECF"/>
<path d="M12.4996 11.5596H11.3122L11.2133 11.6494V12.4007C11.2133 12.5044 11.1593 12.562 11.101 12.5973C11.0765 12.5771 11.1456 12.7386 11.1456 12.7386L11.9826 13.4424L11.9584 13.6119L11.9727 13.68H12.4996V11.5596Z" fill="#FFCEBE"/>
<path d="M13.8208 8.09592C13.0908 8.09592 12.499 7.50414 12.499 6.77417C12.499 7.39142 12.0759 7.90973 11.5039 8.05517V9.76789C11.5039 10.7383 12.1158 11.6407 13.0994 11.9574C14.0692 11.699 14.7896 10.7995 14.7896 9.75173V8.09589H13.8208V8.09592Z" fill="#FFDECF"/>
<path d="M11.5402 9.77395V8.04466C11.4245 8.07779 11.3024 8.09588 11.176 8.09588H10.207V9.77391C10.207 10.9511 11.1273 12.0273 12.5212 12.0319C12.747 12.0327 12.9651 11.9989 13.1713 11.9363C12.1679 11.6484 11.5402 10.7459 11.5402 9.77395Z" fill="#FFCEBE"/>
<path d="M13.3691 14.1848C13.4447 14.2967 13.6003 14.319 13.7042 14.2328L15.1048 13.0713C14.5061 12.8395 13.9961 12.6419 13.9348 12.6182C13.9216 12.6131 13.9093 12.6066 13.8976 12.5994L13.0318 13.3173C12.9414 13.3922 12.9226 13.5236 12.9883 13.6209L13.3691 14.1848Z" fill="#ED91EB"/>
<path d="M9.89453 13.0708L11.2959 14.2329C11.3998 14.3191 11.5554 14.2968 11.6309 14.1849L12.0117 13.621C12.0774 13.5237 12.0586 13.3923 11.9682 13.3174L11.1 12.5974C11.0582 12.6227 11.0142 12.6367 10.986 12.6476C10.9659 12.6555 10.48 12.8438 9.89453 13.0708Z" fill="#ED91EB"/>
<path opacity="0.2" d="M7.55628 15.6724C7.55628 14.7975 8.04434 14.0757 8.43747 13.6362C8.08075 13.7745 7.82944 13.8719 7.81928 13.8759C7.28197 14.097 6.5625 14.7928 6.5625 15.8252V19.5812C6.5625 19.8125 6.75 20 6.98131 20H7.55631C7.55628 18.7525 7.55628 16.6635 7.55628 15.6724Z" fill="#0E2667"/>
</g>
<defs>
<linearGradient id="paint0_linear_5502_17952" x1="6.5625" y1="16.5858" x2="18.4373" y2="16.5858" gradientUnits="userSpaceOnUse">
<stop stop-color="#DF7BEA"/>
<stop offset="1" stop-color="#ED3197"/>
</linearGradient>
<clipPath id="clip0_5502_17952">
<rect width="16" height="16" fill="white" transform="translate(4.5 4)"/>
</clipPath>
</defs>
</svg>
