<svg width="18" height="18" viewBox="0 0 18 18" fill="none" xmlns="http://www.w3.org/2000/svg">
<path d="M9.10428 0C9.07986 4.83489e-05 9.05545 0.00102554 9.0311 0.00292968C8.76841 0.0229441 8.52251 0.149851 8.34295 0.358072C8.1634 0.566293 8.06354 0.840346 8.0635 1.125C8.0635 1.42336 8.17316 1.70951 8.36834 1.92049C8.56352 2.13146 8.82825 2.24999 9.10428 2.24999C9.31926 2.24966 9.52887 2.17739 9.70431 2.04309C9.87975 1.9088 10.0124 1.71908 10.0841 1.49999H11.5328V5.24998H12.9205V1.49999H14.3691C14.4408 1.71908 14.5735 1.9088 14.7489 2.04309C14.9243 2.17739 15.134 2.24966 15.3489 2.24999C15.625 2.24999 15.8897 2.13146 16.0849 1.92049C16.2801 1.70951 16.3897 1.42336 16.3897 1.125C16.3894 0.840835 16.2895 0.567345 16.1103 0.359472C15.9311 0.151599 15.6857 0.0247444 15.4235 0.00439451C15.3987 0.00148525 15.3738 1.83073e-05 15.3489 0H9.10428ZM1.81885 5.24998C1.63483 5.24998 1.45835 5.329 1.32822 5.46965C1.1981 5.6103 1.125 5.80106 1.125 5.99998C1.125 6.19889 1.1981 6.38965 1.32822 6.5303C1.45835 6.67095 1.63483 6.74997 1.81885 6.74997H2.5127C3.2875 6.74997 3.9004 7.41247 3.9004 8.24997V11.25C3.9004 12.8979 5.15118 14.2499 6.6758 14.2499H8.75735V12.7499H6.6758C5.901 12.7499 5.2881 12.0874 5.2881 11.25V8.24997C5.2881 6.60197 4.03732 5.24998 2.5127 5.24998H1.81885ZM11.5328 6.74997C10.7661 6.74997 10.1451 7.42122 10.1451 8.24997V16.4999H9.4512C9.35926 16.4985 9.26798 16.5169 9.18265 16.5539C9.09733 16.591 9.01968 16.646 8.9542 16.7158C8.88872 16.7856 8.83673 16.8687 8.80124 16.9604C8.76575 17.0521 8.74747 17.1505 8.74747 17.2499C8.74747 17.3493 8.76575 17.4477 8.80124 17.5394C8.83673 17.6311 8.88872 17.7143 8.9542 17.784C9.01968 17.8538 9.09733 17.9088 9.18265 17.9459C9.26798 17.983 9.35926 18.0013 9.4512 17.9999H15.002C15.094 18.0013 15.1852 17.983 15.2706 17.9459C15.3559 17.9088 15.4335 17.8538 15.499 17.784C15.5645 17.7143 15.6165 17.6311 15.652 17.5394C15.6875 17.4477 15.7057 17.3493 15.7057 17.2499C15.7057 17.1505 15.6875 17.0521 15.652 16.9604C15.6165 16.8687 15.5645 16.7856 15.499 16.7158C15.4335 16.646 15.3559 16.591 15.2706 16.5539C15.1852 16.5169 15.094 16.4985 15.002 16.4999H14.3082V8.24997C14.3082 7.42122 13.6872 6.74997 12.9205 6.74997H11.5328Z" fill="#A3A3A3"/>
</svg>
