<svg width="18" height="18" viewBox="0 0 18 18" fill="none" xmlns="http://www.w3.org/2000/svg">
<path d="M15.0131 16.2543H3.57583V17.1271C3.57583 17.3586 3.48976 17.5807 3.33656 17.7443C3.18335 17.908 2.97556 18 2.75889 18H1.94194C1.72528 18 1.51748 17.908 1.36428 17.7443C1.21107 17.5807 1.125 17.3586 1.125 17.1271V9.27146L3.09956 5.75473C3.24472 5.49623 3.45007 5.2823 3.6956 5.13377C3.94112 4.98525 4.21847 4.90718 4.50062 4.90719H14.0883C14.3704 4.90718 14.6478 4.98525 14.8933 5.13377C15.1388 5.2823 15.3442 5.49623 15.4893 5.75473L17.4639 9.27146V17.1271C17.4639 17.3586 17.3778 17.5807 17.2246 17.7443C17.0714 17.908 16.8636 18 16.6469 18H15.83C15.6133 18 15.4055 17.908 15.2523 17.7443C15.0991 17.5807 15.0131 17.3586 15.0131 17.1271V16.2543ZM3.03011 9.27146H15.5588L14.0883 6.65289H4.50062L3.03011 9.27146ZM4.80125 13.6357C5.12625 13.6357 5.43794 13.4978 5.66775 13.2522C5.89756 13.0067 6.02667 12.6737 6.02667 12.3264C6.02667 11.9792 5.89756 11.6462 5.66775 11.4006C5.43794 11.1551 5.12625 11.0172 4.80125 11.0172C4.47625 11.0172 4.16456 11.1551 3.93475 11.4006C3.70494 11.6462 3.57583 11.9792 3.57583 12.3264C3.57583 12.6737 3.70494 13.0067 3.93475 13.2522C4.16456 13.4978 4.47625 13.6357 4.80125 13.6357ZM13.7876 13.6357C14.1126 13.6357 14.4243 13.4978 14.6541 13.2522C14.884 13.0067 15.0131 12.6737 15.0131 12.3264C15.0131 11.9792 14.884 11.6462 14.6541 11.4006C14.4243 11.1551 14.1126 11.0172 13.7876 11.0172C13.4626 11.0172 13.151 11.1551 12.9211 11.4006C12.6913 11.6462 12.5622 11.9792 12.5622 12.3264C12.5622 12.6737 12.6913 13.0067 12.9211 13.2522C13.151 13.4978 13.4626 13.6357 13.7876 13.6357ZM3.93529 0.926971L4.80125 0L5.66721 0.925225C5.83863 1.10832 5.95537 1.34161 6.00269 1.59559C6.05 1.84958 6.02575 2.11285 5.93302 2.35212C5.84028 2.59138 5.68321 2.79588 5.48169 2.93977C5.28016 3.08365 5.04322 3.16045 4.80084 3.16045C4.55846 3.16045 4.32153 3.08365 4.12 2.93977C3.91847 2.79588 3.76141 2.59138 3.66867 2.35212C3.57593 2.11285 3.55169 1.84958 3.599 1.59559C3.64631 1.34161 3.76306 1.10832 3.93447 0.925225L3.93529 0.926971ZM8.42849 0.926971L9.29445 0L10.1604 0.925225C10.3318 1.10832 10.4486 1.34161 10.4959 1.59559C10.5432 1.84958 10.5189 2.11285 10.4262 2.35212C10.3335 2.59138 10.1764 2.79588 9.97488 2.93977C9.77336 3.08365 9.53642 3.16045 9.29404 3.16045C9.05166 3.16045 8.81472 3.08365 8.61319 2.93977C8.41167 2.79588 8.2546 2.59138 8.16187 2.35212C8.06913 2.11285 8.04488 1.84958 8.0922 1.59559C8.13951 1.34161 8.25625 1.10832 8.42767 0.925225L8.42849 0.926971ZM12.9217 0.926971L13.7876 0.000872791L14.6536 0.926098C14.825 1.10919 14.9418 1.34248 14.9891 1.59647C15.0364 1.85045 15.0121 2.11373 14.9194 2.35299C14.8267 2.59225 14.6696 2.79676 14.4681 2.94064C14.2666 3.08452 14.0296 3.16132 13.7872 3.16132C13.5449 3.16132 13.3079 3.08452 13.1064 2.94064C12.9049 2.79676 12.7478 2.59225 12.6551 2.35299C12.5623 2.11373 12.5381 1.85045 12.5854 1.59647C12.6327 1.34248 12.7494 1.10919 12.9209 0.926098L12.9217 0.926971Z" fill="#A3A3A3"/>
</svg>
