<svg width="18" height="18" viewBox="0 0 18 18" fill="none" xmlns="http://www.w3.org/2000/svg">
<path d="M0.9 15.9227V2.04986C0.9 1.80457 0.994821 1.56933 1.1636 1.39588C1.33239 1.22244 1.56131 1.125 1.8 1.125H9.9C10.1387 1.125 10.3676 1.22244 10.5364 1.39588C10.7052 1.56933 10.8 1.80457 10.8 2.04986V9.4487H12.6C13.0774 9.4487 13.5352 9.64358 13.8728 9.99047C14.2104 10.3374 14.4 10.8078 14.4 11.2984V14.9978C14.4 15.2431 14.4948 15.4784 14.6636 15.6518C14.8324 15.8252 15.0613 15.9227 15.3 15.9227C15.5387 15.9227 15.7676 15.8252 15.9364 15.6518C16.1052 15.4784 16.2 15.2431 16.2 14.9978V8.52384H14.4C14.1613 8.52384 13.9324 8.4264 13.7636 8.25296C13.5948 8.07952 13.5 7.84428 13.5 7.59899V4.28246L12.0087 2.74997L13.2813 1.44223L17.7363 6.02026C17.82 6.10603 17.8864 6.20795 17.9316 6.32016C17.9769 6.43237 18.0001 6.55267 18 6.67413V14.9978C18 15.7337 17.7155 16.4394 17.2092 16.9597C16.7028 17.4801 16.0161 17.7724 15.3 17.7724C14.5839 17.7724 13.8972 17.4801 13.3908 16.9597C12.8845 16.4394 12.6 15.7337 12.6 14.9978V11.2984H10.8V15.9227H11.7V17.7724H0V15.9227H0.9ZM2.7 2.97471V8.52384H9V2.97471H2.7Z" fill="#A3A3A3"/>
</svg>
