<svg width="20" height="17" viewBox="0 0 20 17" fill="none" xmlns="http://www.w3.org/2000/svg">
<path d="M8.65033 1.44636L1.07251 14.5706C0.935628 14.8076 0.863551 15.0764 0.863525 15.3501C0.8635 15.6238 0.935527 15.8927 1.07237 16.1297C1.2092 16.3668 1.40603 16.5636 1.64306 16.7004C1.88009 16.8373 2.14896 16.9093 2.42266 16.9093H17.5771C17.8508 16.9093 18.1196 16.8373 18.3567 16.7004C18.5937 16.5636 18.7905 16.3668 18.9274 16.1297C19.0642 15.8927 19.1362 15.6238 19.1362 15.3501C19.1362 15.0764 19.0641 14.8076 18.9272 14.5706L11.3502 1.44636C11.2134 1.2094 11.0166 1.01263 10.7797 0.875823C10.5427 0.739015 10.2739 0.666992 10.0003 0.666992C9.72665 0.666992 9.45785 0.739015 9.22089 0.875823C8.98392 1.01263 8.78715 1.2094 8.65033 1.44636Z" fill="#EF4444"/>
<path d="M10.0991 5.49414H9.90145C9.41478 5.49414 9.02026 5.88866 9.02026 6.37533V10.5872C9.02026 11.0739 9.41478 11.4684 9.90145 11.4684H10.0991C10.5858 11.4684 10.9803 11.0739 10.9803 10.5872V6.37533C10.9803 5.88866 10.5858 5.49414 10.0991 5.49414Z" fill="white"/>
<path d="M10.0003 14.8096C10.5415 14.8096 10.9803 14.3709 10.9803 13.8296C10.9803 13.2884 10.5415 12.8496 10.0003 12.8496C9.45903 12.8496 9.02026 13.2884 9.02026 13.8296C9.02026 14.3709 9.45903 14.8096 10.0003 14.8096Z" fill="white"/>
</svg>
