<svg width="17" height="17" viewBox="0 0 17 17" fill="none" xmlns="http://www.w3.org/2000/svg">
<ellipse cx="8.50001" cy="8.5" rx="8.50001" ry="8.5" fill="#F49A18"/>
<path fill-rule="evenodd" clip-rule="evenodd" d="M7.13355 10.3612C7.18321 10.2827 7.23853 10.2077 7.29909 10.1369C8.85766 8.61444 10.417 7.0927 11.9771 5.57169C12.1751 5.34623 12.4802 5.23907 12.7802 5.28968C13.0774 5.33868 13.3251 5.53868 13.4299 5.81422C13.5348 6.08978 13.4808 6.39896 13.2883 6.62513C13.2366 6.68396 13.1818 6.7402 13.1242 6.79354C11.3582 8.51579 9.59202 10.2379 7.82571 11.9598C7.34515 12.4283 6.89397 12.4291 6.41566 11.9629C5.53949 11.1088 4.66375 10.2543 3.78845 9.39939C3.55857 9.19122 3.4651 8.87643 3.54539 8.5807C3.62567 8.285 3.86662 8.05653 4.17201 7.98658C4.47739 7.91662 4.79745 8.01657 5.00437 8.24648C5.66718 8.89749 6.33433 9.54425 6.99896 10.1935C7.03162 10.2254 7.05666 10.2647 7.13355 10.3612Z" fill="white"/>
</svg>
