<svg width="20" height="20" viewBox="0 0 20 20" fill="none" xmlns="http://www.w3.org/2000/svg">
<g clip-path="url(#clip0_3104_28865)">
<path d="M18.572 2.85716H13.572V2.14286C13.572 0.959388 12.6126 0 11.4292 0H8.57201C7.38854 0 6.42915 0.959388 6.42915 2.14286V2.85716H1.42914C1.03464 2.85716 0.714844 3.17695 0.714844 3.57145C0.714844 3.96596 1.03468 4.28571 1.42914 4.28571H2.20555L3.572 19.3507C3.60569 19.7196 3.91586 20.0015 4.2863 20H15.7149C16.0853 20.0016 16.3954 19.7196 16.4292 19.3507L17.7956 4.28571H18.572C18.9665 4.28571 19.2863 3.96592 19.2863 3.57141C19.2863 3.17691 18.9665 2.85716 18.572 2.85716ZM7.85771 2.14286C7.85771 1.74835 8.17751 1.42856 8.57201 1.42856H11.4292C11.8237 1.42856 12.1435 1.74835 12.1435 2.14286V2.85716H7.85775V2.14286H7.85771ZM15.0627 18.5714H4.93845L3.64344 4.28571H7.14345H16.3613L15.0627 18.5714Z" fill="#A3A3A3"/>
<path d="M7.85778 16.3807C7.8577 16.3797 7.85766 16.3787 7.85757 16.3778L7.14327 6.3778C7.11527 5.9833 6.77275 5.68623 6.37829 5.71423C5.98379 5.74223 5.68672 6.08475 5.71472 6.47921L6.42902 16.4792C6.45568 16.8537 6.76781 17.1437 7.14332 17.1428H7.19475C7.58829 17.1154 7.88515 16.7743 7.85778 16.3807Z" fill="#A3A3A3"/>
<path d="M10.0014 5.71436C9.60691 5.71436 9.28711 6.03415 9.28711 6.42865V16.4286C9.28711 16.8231 9.60691 17.1429 10.0014 17.1429C10.3959 17.1429 10.7157 16.8231 10.7157 16.4286V6.42865C10.7157 6.03415 10.3959 5.71436 10.0014 5.71436Z" fill="#A3A3A3"/>
<path d="M13.6219 5.71423C13.2274 5.68623 12.8849 5.9833 12.8569 6.3778L12.1426 16.3778C12.1137 16.7712 12.4091 17.1136 12.8026 17.1425C12.8038 17.1426 12.8049 17.1427 12.8062 17.1428H12.8569C13.2324 17.1437 13.5445 16.8537 13.5712 16.4792L14.2855 6.47921C14.3135 6.08475 14.0164 5.74227 13.6219 5.71423Z" fill="#A3A3A3"/>
</g>
<defs>
<clipPath id="clip0_3104_28865">
<rect width="20" height="20" fill="white"/>
</clipPath>
</defs>
</svg>
