<svg width="20" height="20" viewBox="0 0 20 20" fill="none" xmlns="http://www.w3.org/2000/svg">
<path d="M5 2.5C4.33696 2.5 3.70107 2.76339 3.23223 3.23223C2.76339 3.70107 2.5 4.33696 2.5 5V15C2.5 15.663 2.76339 16.2989 3.23223 16.7678C3.70107 17.2366 4.33696 17.5 5 17.5H9.16667C9.38768 17.5 9.59964 17.4122 9.75592 17.2559C9.9122 17.0996 10 16.8877 10 16.6667C10 16.4457 9.9122 16.2337 9.75592 16.0774C9.59964 15.9211 9.38768 15.8333 9.16667 15.8333H5C4.77899 15.8333 4.56702 15.7455 4.41074 15.5893C4.25446 15.433 4.16667 15.221 4.16667 15V5C4.16667 4.77899 4.25446 4.56702 4.41074 4.41074C4.56702 4.25446 4.77899 4.16667 5 4.16667H9.16667C9.38768 4.16667 9.59964 4.07887 9.75592 3.92259C9.9122 3.76631 10 3.55435 10 3.33333C10 3.11232 9.9122 2.90036 9.75592 2.74408C9.59964 2.5878 9.38768 2.5 9.16667 2.5H5Z" fill="#EF4444"/>
<path d="M12.7442 6.07748C12.9004 5.92126 13.1124 5.8335 13.3333 5.8335C13.5543 5.8335 13.7662 5.92126 13.9225 6.07748L17.2558 9.41082C17.4121 9.56709 17.4998 9.77902 17.4998 9.99999C17.4998 10.221 17.4121 10.4329 17.2558 10.5892L13.9225 13.9225C13.7653 14.0743 13.5548 14.1583 13.3363 14.1564C13.1178 14.1545 12.9088 14.0668 12.7543 13.9123C12.5998 13.7578 12.5122 13.5488 12.5103 13.3303C12.5084 13.1118 12.5924 12.9013 12.7442 12.7442L14.655 10.8333H8.33333C8.11232 10.8333 7.90036 10.7455 7.74408 10.5892C7.5878 10.433 7.5 10.221 7.5 9.99999C7.5 9.77897 7.5878 9.56701 7.74408 9.41073C7.90036 9.25445 8.11232 9.16665 8.33333 9.16665H14.655L12.7442 7.25582C12.5879 7.09955 12.5002 6.88762 12.5002 6.66665C12.5002 6.44568 12.5879 6.23376 12.7442 6.07748Z" fill="#EF4444"/>
</svg>
