<svg width="138" height="40" viewBox="0 0 138 40" fill="none" xmlns="http://www.w3.org/2000/svg">
<rect width="138" height="40" rx="12" fill="url(#paint0_linear_2700_2845)"/>
<path d="M125.593 27.4842C125.482 27.6899 125.299 27.7327 125.082 27.7291C124.609 27.722 124.135 27.7291 123.656 27.7291C123.295 27.7291 123.194 27.6472 123.156 27.2953C123.082 26.6103 123.019 25.9235 122.95 25.2376C122.861 24.3691 122.772 23.5006 122.683 22.6321C122.599 21.7894 122.518 20.9467 122.433 20.104C122.347 19.2417 122.258 18.3807 122.166 17.5207C122.132 17.1912 122.099 16.8616 122.064 16.5079C122.031 16.5302 122.003 16.5589 121.981 16.5922C121.96 16.6256 121.945 16.663 121.938 16.7021C120.683 20.0051 119.424 23.3103 118.161 26.6174C118.064 26.8713 117.988 26.9301 117.707 26.9319C117.194 26.9319 116.681 26.9319 116.169 26.9319C115.863 26.9319 115.802 26.8927 115.688 26.5987C115.332 25.6753 114.978 24.7509 114.626 23.8257C113.704 21.4135 112.784 19.0006 111.864 16.5872C111.848 16.5462 111.828 16.507 111.787 16.418C111.741 16.8455 111.698 17.2197 111.663 17.5974C111.578 18.44 111.494 19.2824 111.411 20.1245C111.324 21.0004 111.234 21.8758 111.144 22.7505C111.062 23.5665 110.979 24.3828 110.897 25.1993C110.824 25.9119 110.75 26.6246 110.674 27.3372C110.644 27.6231 110.547 27.7229 110.26 27.7265C109.726 27.7336 109.193 27.7336 108.662 27.7265C108.357 27.722 108.248 27.5724 108.282 27.2641C108.401 26.181 108.514 25.0978 108.632 24.0146C108.745 22.9706 108.861 21.9275 108.974 20.8835C109.098 19.7254 109.217 18.5594 109.342 17.3978C109.453 16.3672 109.568 15.3365 109.68 14.305C109.739 13.7634 109.798 13.2218 109.852 12.6802C109.884 12.3569 110.008 12.2348 110.327 12.2304C110.972 12.2304 111.616 12.2304 112.261 12.2304C112.551 12.2304 112.657 12.3132 112.759 12.5867C113.756 15.2305 114.753 17.8732 115.75 20.5147C116.106 21.4648 116.465 22.415 116.827 23.3652C116.844 23.4448 116.882 23.5183 116.937 23.5781C117.04 23.3108 117.138 23.0498 117.235 22.7915L121.065 12.6125C121.178 12.3123 121.302 12.2295 121.63 12.2295C122.255 12.2295 122.879 12.2295 123.501 12.2295C123.833 12.2295 123.94 12.3079 123.981 12.6419C124.064 13.3065 124.129 13.9728 124.201 14.6382L124.497 17.4183C124.596 18.3388 124.695 19.2593 124.793 20.1797C124.892 21.1002 124.991 22.0136 125.09 22.9198C125.188 23.8337 125.286 24.7474 125.384 25.6607C125.44 26.1827 125.493 26.7056 125.549 27.2276C125.549 27.249 125.573 27.2686 125.587 27.29L125.593 27.4842Z" fill="white"/>
<path d="M80.4143 27.9973C80.2094 27.902 79.984 27.9207 79.7684 27.8815C77.2938 27.4361 75.4152 26.1276 74.1565 23.9532C73.2969 22.4673 73.0216 20.8497 73.1882 19.1518C73.352 17.288 74.1871 15.547 75.5381 14.2525C76.7208 13.0752 78.2562 12.3171 79.9101 12.0942C81.9135 11.8109 83.793 12.1574 85.5042 13.2602C87.3401 14.4405 88.5044 16.1071 88.9622 18.2352C89.4433 20.4622 89.0985 22.5751 87.8176 24.4841C86.6043 26.2906 84.9038 27.396 82.7722 27.8397C82.4962 27.8969 82.2168 27.9365 81.9357 27.9581C81.8983 27.9581 81.8547 27.9528 81.8351 28H81.5589C81.2731 27.935 80.9763 27.935 80.6904 28L80.4143 27.9973ZM86.7664 20.023C86.7664 16.8732 84.3016 14.3942 81.1777 14.3826C78.0029 14.371 75.5657 16.8536 75.5256 19.9411C75.4882 23.1051 77.9388 25.6198 81.1456 25.6216C84.3863 25.6225 86.7958 23.0455 86.7664 20.023Z" fill="white"/>
<path d="M97.9725 27.9973C97.7685 27.902 97.5423 27.9207 97.3276 27.8815C94.8521 27.4361 92.9734 26.1276 91.7156 23.9532C90.856 22.4673 90.5808 20.8497 90.7474 19.1518C90.9112 17.2878 91.7466 15.5467 93.0981 14.2525C94.2802 13.0754 95.8151 12.3173 97.4683 12.0942C99.4726 11.8109 101.351 12.1574 103.063 13.2602C104.895 14.4405 106.063 16.1107 106.52 18.2326C107.001 20.4595 106.658 22.5725 105.376 24.4814C104.163 26.2879 102.462 27.3934 100.331 27.837C100.055 27.8942 99.7753 27.9338 99.494 27.9555C99.4566 27.9555 99.4129 27.9501 99.3933 27.9973H99.1172C98.8313 27.9324 98.5345 27.9324 98.2486 27.9973H97.9725ZM104.326 20.0293C104.326 16.8759 101.863 14.396 98.7421 14.3826C95.5629 14.3692 93.1249 16.851 93.0848 19.9348C93.0429 23.0998 95.4899 25.6163 98.6967 25.6216C101.939 25.6287 104.354 23.0535 104.326 20.0293Z" fill="white"/>
<path d="M32.1233 27.9973C31.9193 27.902 31.6931 27.9207 31.4775 27.8815C29.0029 27.4361 27.1242 26.1276 25.8655 23.9532C25.0059 22.4673 24.7307 20.8497 24.8973 19.1518C25.0611 17.288 25.8961 15.547 27.2472 14.2525C28.4299 13.0753 29.9653 12.3173 31.6191 12.0942C33.6225 11.8109 35.502 12.1574 37.2141 13.2602C39.0456 14.4405 40.2179 16.1071 40.6713 18.2352C41.1523 20.4622 40.8084 22.5751 39.5266 24.4841C38.3134 26.2906 36.6129 27.396 34.4812 27.8397C34.2052 27.8969 33.9258 27.9365 33.6448 27.9581C33.6073 27.9581 33.5637 27.9528 33.5441 28H33.2697C32.9839 27.935 32.6871 27.935 32.4012 28L32.1233 27.9973ZM38.4755 20.023C38.4755 16.8732 36.0107 14.3942 32.8867 14.3826C32.1496 14.3727 31.4179 14.509 30.7339 14.7837C30.0498 15.0584 29.427 15.466 28.9015 15.9829C28.376 16.4998 27.9582 17.1158 27.6722 17.7952C27.3863 18.4746 27.2379 19.204 27.2356 19.9411C27.1973 23.1051 29.6478 25.6198 32.8546 25.6216C36.0953 25.6225 38.5049 23.0455 38.4755 20.023Z" fill="white"/>
<path d="M49.6815 27.9973C49.4775 27.902 49.2513 27.9207 49.0366 27.8815C46.5611 27.4361 44.6825 26.1276 43.4247 23.9532C42.5651 22.4673 42.2907 20.8497 42.4564 19.1518C42.6202 17.2878 43.4556 15.5467 44.8072 14.2525C45.9893 13.0754 47.5241 12.3173 49.1773 12.0942C51.1816 11.8109 53.0603 12.1574 54.7724 13.2602C56.6083 14.4405 57.7716 16.1071 58.2304 18.2352C58.7105 20.4622 58.3667 22.5751 57.0848 24.4841C55.8725 26.2906 54.1711 27.396 52.0403 27.8397C51.764 27.8969 51.4843 27.9365 51.203 27.9581C51.1656 27.9581 51.1219 27.9528 51.1023 28H50.8262C50.5406 27.935 50.2441 27.935 49.9586 28L49.6815 27.9973ZM56.0346 20.0293C56.0346 16.8759 53.5725 14.396 50.4512 14.3826C47.272 14.3692 44.8339 16.851 44.7938 19.9348C44.7519 23.0998 47.1989 25.6163 50.4057 25.6216C53.6482 25.6287 56.0604 23.0535 56.0346 20.0293Z" fill="white"/>
<path d="M80.6904 27.9972C80.9763 27.9322 81.2731 27.9322 81.5589 27.9972H80.6904Z" fill="white"/>
<path d="M98.2487 27.9972C98.5345 27.9322 98.8313 27.9322 99.1172 27.9972H98.2487Z" fill="white"/>
<path d="M28.7622 26.9151C27.7156 27.6607 26.6101 27.7426 25.4432 27.2964C25.0292 27.1294 24.6324 26.9227 24.2584 26.679C23.5413 26.2336 22.8029 25.8417 21.9246 25.8114C22.166 25.4898 22.7797 25.35 23.1441 25.4123C23.6518 25.5014 24.1239 25.6947 24.6121 25.8488C25.0022 25.9718 25.3942 26.0101 25.7915 25.8791C25.8621 25.8618 25.9279 25.8287 25.9841 25.7825C26.0402 25.7362 26.0852 25.6779 26.1157 25.6119C26.1467 25.5455 26.1605 25.4724 26.156 25.3993C26.1514 25.3262 26.1286 25.2554 26.0896 25.1933C26.0506 25.1313 25.9967 25.08 25.9328 25.0442C25.8689 25.0084 25.797 24.9892 25.7238 24.9883C25.376 24.9565 25.0254 24.9925 24.6913 25.0943C24.4699 25.1765 24.2306 25.1983 23.998 25.1575C23.7654 25.1166 23.5478 25.0146 23.3676 24.8618C22.5268 24.188 21.4574 23.8664 20.3844 23.9648C19.9663 24.0075 19.5546 24.099 19.1578 24.2374C19.2718 23.743 19.7813 23.2869 20.3265 23.1854C20.8476 23.0874 21.3598 23.1729 21.8729 23.2486C22.4822 23.3377 23.0764 23.327 23.6375 23.0286C23.9288 22.8736 24.0963 22.6447 24.091 22.3053C24.0856 21.9659 23.9066 21.7361 23.5975 21.6158C22.9231 21.3486 22.239 21.3691 21.554 21.5784C20.9385 21.7664 20.396 22.096 19.8544 22.4345C19.2086 22.8389 18.5645 23.2477 17.8109 23.4286C17.4425 23.5266 17.0616 23.5701 16.6805 23.5577C16.0953 23.5239 15.6686 23.229 15.3052 22.781C14.8134 22.177 14.2077 21.7254 13.4185 21.5802C12.7192 21.4519 12.0636 21.614 11.432 21.9044C11.2975 21.9659 11.1648 22.0336 11 22.1138C11.1799 21.6338 11.5049 21.2218 11.93 20.9353C12.9749 20.228 14.0679 20.1336 15.2045 20.7072C15.6258 20.9201 16.0481 21.1321 16.489 21.3023C16.9299 21.4724 17.3744 21.5508 17.8394 21.4501C17.9977 21.4174 18.1472 21.3512 18.2778 21.2559C18.4084 21.1607 18.5171 21.0386 18.5966 20.8979C18.6634 20.7951 18.6918 20.6721 18.6766 20.5505C18.6614 20.4288 18.6038 20.3165 18.5138 20.2333C18.1361 19.8298 17.6577 19.82 17.1624 19.8824C16.628 19.9492 16.1086 20.0908 15.5733 20.1496C15.3254 20.1871 15.072 20.1573 14.8396 20.0632C14.6072 19.9692 14.4043 19.8144 14.2523 19.6151C14.1181 19.4533 14.0033 19.2763 13.9102 19.0878C14.0705 19.1145 14.2139 19.1412 14.3556 19.1617C15.1644 19.2766 15.8824 19.013 16.5674 18.6219C16.8124 18.482 17.0538 18.3351 17.2978 18.1925C18.0452 17.7534 18.8024 17.814 19.4687 18.3707C19.7653 18.621 20.0619 18.8535 20.4423 18.9479C21.1104 19.1136 21.6841 18.7751 21.8337 18.1124C21.9228 17.7071 21.7197 17.4167 21.4453 17.1601C21.0222 16.7637 20.4904 16.6319 19.939 16.549C19.5363 16.5006 19.14 16.4089 18.7569 16.2756C18.5566 16.2026 18.3728 16.0904 18.2163 15.9456C18.0599 15.8007 17.9338 15.6261 17.8457 15.432C18.0621 15.4008 18.2661 15.3768 18.4692 15.3429C18.8001 15.2884 19.1192 15.1775 19.4126 15.0151C20.0486 14.6588 20.6784 14.6927 21.3126 15.0071C21.8159 15.265 22.2869 15.5816 22.7156 15.9504C23.3036 16.4587 24.0647 16.7209 24.841 16.6827C25.314 16.6657 25.6427 16.4448 25.7647 16.0315C25.9073 15.5416 25.7647 15.1532 25.3381 14.8975C24.8802 14.6241 24.3716 14.4976 23.8496 14.4219C23.1583 14.3212 22.6515 13.9818 22.3878 13.3191C22.3664 13.2665 22.313 13.2042 22.3495 13.1543C22.386 13.1044 22.459 13.1543 22.5125 13.1667C23.2634 13.3333 24.0054 13.2469 24.7394 13.067C25.887 12.782 27.0932 12.844 28.2055 13.2451C28.2661 13.2656 28.3257 13.2897 28.4015 13.3173C26.04 15.0285 24.8232 17.3107 24.8962 20.22C24.9693 23.1293 26.3215 25.3322 28.7622 26.9151Z" fill="white"/>
<path d="M65.8053 24.2578C65.9835 23.7928 66.1616 23.3554 66.3335 22.9172L70.3706 12.6072C70.4873 12.3115 70.6147 12.2277 70.9398 12.2277C71.46 12.2277 71.9796 12.2277 72.4987 12.2277C72.9236 12.2277 73.0207 12.3712 72.863 12.7622L67.4007 26.2309C67.2484 26.6077 67.0934 26.9827 66.9455 27.3622C66.9092 27.4759 66.837 27.5748 66.7396 27.6439C66.6422 27.713 66.525 27.7485 66.4057 27.7452C66.0048 27.7523 65.604 27.7514 65.2023 27.7452C64.9199 27.7407 64.7471 27.5849 64.6428 27.3265C63.7918 25.2172 62.9394 23.109 62.0854 21.002C60.979 18.2667 59.8724 15.5314 58.7654 12.7961C58.7397 12.7358 58.7171 12.6743 58.6977 12.6117C58.6425 12.4184 58.7182 12.2954 58.9142 12.2465C59.0439 12.2245 59.1759 12.2185 59.307 12.2286C59.7605 12.2286 60.2148 12.2286 60.6682 12.2286C60.996 12.2286 61.1349 12.3231 61.2525 12.6224C62.5323 15.9016 63.812 19.1809 65.0918 22.4602C65.3083 23.016 65.5212 23.5728 65.7376 24.1286C65.751 24.1625 65.7724 24.1945 65.8053 24.2578Z" fill="white"/>
<defs>
<linearGradient id="paint0_linear_2700_2845" x1="5.1409e-07" y1="20" x2="138" y2="20" gradientUnits="userSpaceOnUse">
<stop stop-color="#FFAA00"/>
<stop offset="1" stop-color="#FF8B00"/>
</linearGradient>
</defs>
</svg>
