<svg width="40" height="40" viewBox="0 0 40 40" fill="none" xmlns="http://www.w3.org/2000/svg">
<rect width="40" height="40" rx="12" fill="url(#paint0_linear_2700_2162)"/>
<path d="M26.1233 27.9973C25.9193 27.902 25.6931 27.9207 25.4775 27.8815C23.0029 27.4361 21.1242 26.1276 19.8655 23.9532C19.0059 22.4673 18.7307 20.8497 18.8973 19.1518C19.0611 17.288 19.8961 15.547 21.2471 14.2525C22.4299 13.0753 23.9653 12.3173 25.6191 12.0942C27.6225 11.8109 29.502 12.1574 31.2141 13.2602C33.0456 14.4405 34.2179 16.1071 34.6713 18.2352C35.1523 20.4622 34.8084 22.5751 33.5266 24.4841C32.3134 26.2906 30.6129 27.396 28.4812 27.8397C28.2052 27.8969 27.9258 27.9365 27.6448 27.9581C27.6073 27.9581 27.5637 27.9528 27.5441 28H27.2697C26.9839 27.935 26.6871 27.935 26.4012 28L26.1233 27.9973ZM32.4755 20.023C32.4755 16.8732 30.0107 14.3942 26.8867 14.3826C26.1496 14.3727 25.4179 14.509 24.7339 14.7837C24.0498 15.0584 23.427 15.466 22.9015 15.9829C22.376 16.4998 21.9582 17.1158 21.6722 17.7952C21.3863 18.4746 21.2379 19.204 21.2356 19.9411C21.1973 23.1051 23.6478 25.6198 26.8546 25.6216C30.0953 25.6225 32.5049 23.0455 32.4755 20.023Z" fill="white"/>
<path d="M22.7622 26.915C21.7156 27.6606 20.6101 27.7425 19.4432 27.2962C19.0292 27.1293 18.6324 26.9225 18.2584 26.6789C17.5413 26.2335 16.8029 25.8416 15.9246 25.8113C16.166 25.4897 16.7797 25.3499 17.1441 25.4122C17.6518 25.5013 18.1239 25.6946 18.6121 25.8487C19.0022 25.9716 19.3942 26.0099 19.7915 25.879C19.8621 25.8616 19.9279 25.8286 19.9841 25.7823C20.0402 25.7361 20.0852 25.6778 20.1157 25.6118C20.1467 25.5454 20.1605 25.4723 20.156 25.3992C20.1514 25.326 20.1286 25.2552 20.0896 25.1932C20.0506 25.1312 19.9967 25.0799 19.9328 25.0441C19.8689 25.0083 19.797 24.9891 19.7238 24.9882C19.376 24.9563 19.0254 24.9923 18.6913 25.0942C18.4699 25.1764 18.2306 25.1982 17.998 25.1573C17.7654 25.1165 17.5478 25.0144 17.3676 24.8617C16.5268 24.1879 15.4574 23.8663 14.3844 23.9647C13.9663 24.0074 13.5546 24.0989 13.1578 24.2373C13.2718 23.7429 13.7813 23.2868 14.3265 23.1853C14.8476 23.0873 15.3598 23.1728 15.8729 23.2485C16.4822 23.3376 17.0764 23.3269 17.6375 23.0285C17.9288 22.8735 18.0963 22.6446 18.091 22.3052C18.0856 21.9658 17.9066 21.736 17.5975 21.6157C16.9231 21.3485 16.239 21.369 15.554 21.5783C14.9385 21.7662 14.396 22.0958 13.8544 22.4343C13.2086 22.8387 12.5645 23.2476 11.8109 23.4284C11.4425 23.5265 11.0616 23.57 10.6805 23.5576C10.0953 23.5238 9.6686 23.2289 9.30516 22.7808C8.81345 22.1769 8.20771 21.7253 7.41848 21.5801C6.71921 21.4518 6.0636 21.6139 5.43203 21.9043C5.29752 21.9658 5.16479 22.0335 5 22.1137C5.17986 21.6336 5.50494 21.2217 5.92998 20.9351C6.97487 20.2279 8.06786 20.1334 9.2045 20.7071C9.62584 20.92 10.0481 21.132 10.489 21.3021C10.9299 21.4723 11.3744 21.5507 11.8394 21.45C11.9977 21.4173 12.1472 21.3511 12.2778 21.2558C12.4084 21.1606 12.5171 21.0385 12.5966 20.8977C12.6634 20.795 12.6918 20.6719 12.6766 20.5503C12.6614 20.4287 12.6038 20.3164 12.5138 20.2332C12.1361 19.8297 11.6577 19.8199 11.1624 19.8822C10.628 19.949 10.1086 20.0907 9.57328 20.1495C9.3254 20.187 9.07199 20.1571 8.83959 20.0631C8.60718 19.9691 8.40433 19.8143 8.25225 19.615C8.1181 19.4531 8.0033 19.2762 7.91019 19.0877C8.07053 19.1144 8.21395 19.1411 8.35558 19.1616C9.16441 19.2765 9.88239 19.0128 10.5674 18.6218C10.8124 18.4819 11.0538 18.3349 11.2978 18.1924C12.0452 17.7533 12.8024 17.8138 13.4687 18.3706C13.7653 18.6209 14.0619 18.8534 14.4423 18.9478C15.1104 19.1135 15.6841 18.775 15.8337 18.1122C15.9228 17.7069 15.7197 17.4165 15.4453 17.16C15.0222 16.7636 14.4904 16.6318 13.939 16.5489C13.5363 16.5005 13.14 16.4088 12.7569 16.2755C12.5566 16.2025 12.3728 16.0903 12.2163 15.9455C12.0599 15.8006 11.9338 15.626 11.8457 15.4319C12.0621 15.4007 12.2661 15.3767 12.4692 15.3428C12.8001 15.2882 13.1192 15.1774 13.4126 15.015C14.0486 14.6587 14.6784 14.6925 15.3126 15.007C15.8159 15.2649 16.2869 15.5815 16.7156 15.9503C17.3036 16.4586 18.0647 16.7208 18.841 16.6825C19.314 16.6656 19.6427 16.4447 19.7647 16.0314C19.9073 15.5414 19.7647 15.1531 19.3381 14.8974C18.8802 14.6239 18.3716 14.4974 17.8496 14.4217C17.1583 14.3211 16.6515 13.9817 16.3878 13.3189C16.3664 13.2664 16.313 13.204 16.3495 13.1541C16.386 13.1043 16.459 13.1541 16.5125 13.1666C17.2634 13.3332 18.0054 13.2468 18.7394 13.0668C19.887 12.7819 21.0932 12.8439 22.2055 13.245C22.2661 13.2655 22.3257 13.2895 22.4015 13.3172C20.04 15.0284 18.8232 17.3105 18.8962 20.2198C18.9693 23.1291 20.3215 25.3321 22.7622 26.915Z" fill="white"/>
<defs>
<linearGradient id="paint0_linear_2700_2162" x1="1.49012e-07" y1="20" x2="40" y2="20" gradientUnits="userSpaceOnUse">
<stop stop-color="#FFAA00"/>
<stop offset="1" stop-color="#FF8B00"/>
</linearGradient>
</defs>
</svg>
