<svg width="25" height="24" viewBox="0 0 25 24" fill="none" xmlns="http://www.w3.org/2000/svg">
<path fill-rule="evenodd" clip-rule="evenodd" d="M7.71653 16.0026C7.55653 16.0026 7.39553 15.9516 7.25953 15.8476C6.93153 15.5946 6.86953 15.1236 7.12253 14.7956L10.1155 10.9056C10.2375 10.7466 10.4185 10.6436 10.6165 10.6186C10.8185 10.5926 11.0165 10.6486 11.1735 10.7736L13.9935 12.9886L16.4605 9.80562C16.7145 9.47662 17.1845 9.41562 17.5125 9.67162C17.8405 9.92562 17.9005 10.3966 17.6465 10.7236L14.7165 14.5036C14.5945 14.6616 14.4145 14.7646 14.2165 14.7886C14.0165 14.8156 13.8185 14.7576 13.6605 14.6346L10.8425 12.4206L8.31153 15.7096C8.16353 15.9016 7.94153 16.0026 7.71653 16.0026Z" fill="#171717"/>
<mask id="mask0_2765_2192" style="mask-type:alpha" maskUnits="userSpaceOnUse" x="17" y="2" width="7" height="6">
<path fill-rule="evenodd" clip-rule="evenodd" d="M17.7954 2H23.1394V7.3449H17.7954V2Z" fill="white"/>
</mask>
<g mask="url(#mask0_2765_2192)">
<path fill-rule="evenodd" clip-rule="evenodd" d="M20.4674 3.49988C19.8214 3.49988 19.2954 4.02488 19.2954 4.67188C19.2954 5.31788 19.8214 5.84488 20.4674 5.84488C21.1134 5.84488 21.6394 5.31788 21.6394 4.67188C21.6394 4.02488 21.1134 3.49988 20.4674 3.49988ZM20.4674 7.34488C18.9944 7.34488 17.7954 6.14588 17.7954 4.67188C17.7954 3.19788 18.9944 1.99988 20.4674 1.99988C21.9414 1.99988 23.1394 3.19788 23.1394 4.67188C23.1394 6.14588 21.9414 7.34488 20.4674 7.34488Z" fill="#171717"/>
</g>
<mask id="mask1_2765_2192" style="mask-type:alpha" maskUnits="userSpaceOnUse" x="2" y="2" width="21" height="21">
<path fill-rule="evenodd" clip-rule="evenodd" d="M2.5 2.8418H22.3619V22.7028H2.5V2.8418Z" fill="white"/>
</mask>
<g mask="url(#mask1_2765_2192)">
<path fill-rule="evenodd" clip-rule="evenodd" d="M16.733 22.7028H8.129C4.762 22.7028 2.5 20.3378 2.5 16.8178V8.7358C2.5 5.2108 4.762 2.8418 8.129 2.8418H15.397C15.811 2.8418 16.147 3.1778 16.147 3.5918C16.147 4.0058 15.811 4.3418 15.397 4.3418H8.129C5.621 4.3418 4 6.0658 4 8.7358V16.8178C4 19.5228 5.582 21.2028 8.129 21.2028H16.733C19.241 21.2028 20.862 19.4818 20.862 16.8178V9.7788C20.862 9.3648 21.198 9.0288 21.612 9.0288C22.026 9.0288 22.362 9.3648 22.362 9.7788V16.8178C22.362 20.3378 20.1 22.7028 16.733 22.7028Z" fill="#171717"/>
</g>
</svg>
